# xmcd CD database file
#
# Track frame offsets:
#	150
#	11587
#	20971
#	30700
#	38978
#	49825
#	59332
#	70841
#	81290
#	90454
#	102473
#	112554
#	121504
#	132475
#	145137
#	154184
#	166694
#	176700
#	190283
#	201192
#	209600
#	223073
#	233189
#	242185
#	252223
#	264572
#	277358
#	288524
#	298602
#	306810
#	316543
#
# Disc length: 4381 seconds
#
# Revision: 4
# Processed by: cddbd v1.5.2PL0 Copyright (c) Steve Scherf et al.
# Submitted via: CDex 1.50
#
DISCID=cf111b1f
DTITLE=Johnny Cash - The Real... Johnny Cash - CD 3
DYEAR=2011
DGENRE=Country
TTITLE0=Seasons Of My Heart
TTITLE1=I Feel Better All Over
TTITLE2=I Couldn't Keep From Crying
TTITLE3=Time Changes Everything
TTITLE4=My Shoes Keep Walking Back To You
TTITLE5=I'd Just Be Fool Enough (To Fall)
TTITLE6=Transfusion Blues
TTITLE7=Why Do You Punish Me (For Loving You)
TTITLE8=I'll Miss You When You Go
TTITLE9=I'm So Lonesam I Could Gry
TTITLE10=Just One More
TTITLE11=Honkytonk Girl
TTITLE12=He'll Understand And Say Well Done
TTITLE13=God Must Have My Fortune Laid Away
TTITLE14=I Got Shoes
TTITLE15=When I've Learned Enough To Die
TTITLE16=Let The Lover Lights Be Burning
TTITLE17=If We Never Meet Again
TTITLE18=When I Take My Vacation In Heaven
TTITLE19=Taller Than Trees
TTITLE20=I Won't Have To Cross Jordan Alone
TTITLE21=When He Reached Down His Hand For Me
TTITLE22=My God Is Real
TTITLE23=These Hands
TTITLE24=I Walk The Line (Bonus Track)
TTITLE25=Folsom Prison Blues (Bonus Track)
TTITLE26=Cry! Cry! Cry! (Bonus Track)
TTITLE27=Get Rhytm (Bonus Track)
TTITLE28=Guess Things Happen That Way (Bonus Track)
TTITLE29=Rock Island Line (Bonus Track)
TTITLE30=Home Of The Blues (Bonus Track)
EXTD=YEAR: 2011
EXTT0=
EXTT1=
EXTT2=
EXTT3=
EXTT4=
EXTT5=
EXTT6=
EXTT7=
EXTT8=
EXTT9=
EXTT10=
EXTT11=
EXTT12=
EXTT13=
EXTT14=
EXTT15=
EXTT16=
EXTT17=
EXTT18=
EXTT19=
EXTT20=
EXTT21=
EXTT22=
EXTT23=
EXTT24=
EXTT25=
EXTT26=
EXTT27=
EXTT28=
EXTT29=
EXTT30=
PLAYORDER=
